<svg height="468pt" viewBox="-35 0 468 468.23156" width="468pt" xmlns="http://www.w3.org/2000/svg"><path d="m131.339844 286.203125-77.570313 140.414063 98.460938 40.429687c8.101562 3.316406 17.359375-.550781 20.691406-8.644531l57.445313-139.886719-55.480469 13.992187-21.832031 96.410157c-.855469 3.769531-4.601563 6.132812-8.375 5.28125-3.769532-.855469-6.132813-4.601563-5.28125-8.375l22.78125-100.605469c.582031-2.574219 2.558593-4.597656 5.117187-5.242188l69.683594-17.570312 7.808593-19.019531-75.816406-14.757813c-15.03125-2.953125-30.246094 4.152344-37.632812 17.574219zm0 0"/><path d="m117.667969 220.101562c48.71875 0 88.214843-39.492187 88.214843-88.210937s-39.492187-88.214844-88.210937-88.214844-88.214844 39.496094-88.214844 88.214844c.054688 48.695313 39.515625 88.15625 88.210938 88.210937zm0-81.792968c-16.117188 0-29.664063-12.113282-31.457031-28.132813-1.792969-16.019531 8.738281-30.828125 24.457031-34.394531v-7.890625c0-3.867187 3.136719-7 7-7 3.867187 0 7 3.132813 7 7v7.890625c14.410156 3.285156 24.636719 16.089844 24.65625 30.871094 0 3.863281-3.132813 7-7 7-3.863281 0-7-3.136719-7-7 0-9.753906-7.90625-17.65625-17.65625-17.65625s-17.65625 7.90625-17.65625 17.65625 7.90625 17.65625 17.65625 17.65625c16.316406 0 29.964843 12.398437 31.515625 28.640625 1.554687 16.242187-9.492188 31.007812-25.515625 34.097656v8.84375c0 3.863281-3.132813 7-7 7-3.863281 0-7-3.136719-7-7v-9.292969c-13.921875-3.65625-23.636719-16.234375-23.65625-30.632812 0-3.863282 3.132812-7 7-7 3.867187 0 7 3.136718 7 7 0 9.753906 7.90625 17.65625 17.65625 17.65625 9.753906 0 17.65625-7.902344 17.65625-17.65625 0-9.75-7.902344-17.65625-17.65625-17.65625zm0 0"/><path d="m117.667969 234.101562c-11.28125.007813-22.484375-1.855468-33.152344-5.523437-10.707031 6.800781-19.035156 16.761719-23.832031 28.5l-60.566406 147.5 40.617187 16.679687 78.351563-141.828124c10.3125-18.75 31.566406-28.675782 52.5625-24.542969l78.566406 15.289062 31.195312-75.96875-67.554687-27.738281c-14.628907 40.542969-53.085938 67.582031-96.1875 67.632812zm0 0"/><path d="m384.070312 0-67.554687 35.722656c-32.101563 17.003906-57.242187 44.703125-71.0625 78.300782l-17.671875 43.035156 29.339844 12.046875 17.671875-43.035157c11-26.730468 31.007812-48.773437 56.550781-62.300781l67.554688-35.722656zm0 0"/></svg>